<svg id="Capa_1" enable-background="new 0 0 497 497" height="512" viewBox="0 0 497 497" width="512" xmlns="http://www.w3.org/2000/svg"><g><path d="m248.5 0c-20.663 0-36.434 18.466-33.202 38.874l-25.992 25.307h118.387l-25.992-25.307c3.233-20.408-12.538-38.874-33.201-38.874z" fill="#fb71a0"/><path d="m248.5 30c-18.168 0-32.035 16.237-29.193 34.181h-30l59.193 184.319 59.193-184.319h-30c2.843-17.944-11.025-34.181-29.193-34.181z" fill="#fb8dac"/><path d="m171.709 12.162c-19.651 6.385-28.944 28.821-19.564 47.231l-16.899 32.1 84.061-27.313-4.008-25.307c-3.233-20.407-23.938-33.096-43.59-26.711z" fill="#e85f93"/><path d="m180.98 40.694c-17.279 5.614-25.45 25.341-17.202 41.529l-28.532 9.271 113.254 157.006-29.193-184.319c-2.842-17.945-21.048-29.101-38.327-23.487z" fill="#fb71a0"/><path d="m102.435 47.459c-16.716 12.145-18.622 36.354-4.011 50.965l-6.153 35.751 71.506-51.952-11.632-22.83c-9.38-18.41-32.993-24.079-49.71-11.934z" fill="#fb71a0"/><path d="m120.069 71.73c-14.698 10.679-16.374 31.966-3.527 44.812l-24.271 17.634 156.229 114.324-84.722-166.277c-8.248-16.188-29.011-21.172-43.709-10.493z" fill="#fb8dac"/><path d="m47.459 102.435c-12.145 16.716-6.476 40.33 11.934 49.71l5.196 35.903 51.952-71.506-18.117-18.118c-14.61-14.61-38.819-12.705-50.965 4.011z" fill="#e85f93"/><path d="m71.73 120.069c-10.679 14.698-5.694 35.461 10.494 43.709l-17.634 24.27 183.91 60.452-131.958-131.958c-12.847-12.847-34.133-11.171-44.812 3.527z" fill="#fb71a0"/><path d="m12.162 171.709c-6.385 19.651 6.303 40.357 26.711 43.589l16.036 32.54 27.313-84.061-22.83-11.632c-18.409-9.38-40.844-.087-47.23 19.564z" fill="#fb71a0"/><path d="m40.694 180.98c-5.614 17.279 5.542 35.485 23.487 38.327l-9.271 28.532 193.59.661-166.277-84.722c-16.187-8.248-35.915-.077-41.529 17.202z" fill="#fb8dac"/><path d="m0 248.5c0 20.663 18.466 36.434 38.874 33.202l25.307 25.992v-88.387l-25.307-4.008c-20.408-3.233-38.874 12.538-38.874 33.201z" fill="#e85f93"/><path d="m30 248.5c0 18.168 16.237 32.035 34.181 29.193v30l184.319-59.193-184.319-29.193c-17.944-2.843-34.181 11.025-34.181 29.193z" fill="#fb71a0"/><path d="m12.162 325.291c6.385 19.651 28.821 28.944 47.231 19.564l32.1 16.899-27.313-84.061-25.307 4.008c-20.407 3.233-33.096 23.938-26.711 43.59z" fill="#fb71a0"/><path d="m40.694 316.02c5.614 17.279 25.341 25.45 41.529 17.202l9.271 28.532 157.006-113.254-184.319 29.193c-17.945 2.842-29.101 21.048-23.487 38.327z" fill="#fb8dac"/><path d="m47.459 394.565c12.145 16.716 36.354 18.622 50.965 4.011l35.751 6.153-51.952-71.506-22.83 11.632c-18.41 9.38-24.079 32.993-11.934 49.71z" fill="#e85f93"/><path d="m71.73 376.931c10.679 14.698 31.966 16.374 44.812 3.527l17.634 24.271 114.324-156.229-166.277 84.722c-16.188 8.248-21.172 29.011-10.493 43.709z" fill="#fb71a0"/><path d="m102.435 449.541c16.716 12.145 40.33 6.476 49.71-11.934l35.903-5.196-71.506-51.952-18.118 18.118c-14.61 14.609-12.705 38.818 4.011 50.964z" fill="#fb71a0"/><path d="m120.069 425.27c14.698 10.679 35.461 5.694 43.709-10.493l24.271 17.634 60.451-183.911-131.958 131.958c-12.847 12.847-11.171 34.133 3.527 44.812z" fill="#fb8dac"/><path d="m171.709 484.838c19.651 6.385 40.357-6.303 43.589-26.711l32.54-16.036-84.061-27.313-11.632 22.83c-9.38 18.409-.087 40.844 19.564 47.23z" fill="#e85f93"/><path d="m180.98 456.306c17.279 5.614 35.485-5.542 38.327-23.487l28.532 9.271.661-193.59-84.722 166.277c-8.248 16.187-.077 35.915 17.202 41.529z" fill="#fb71a0"/><path d="m248.5 497c20.663 0 36.434-18.466 33.202-38.874l25.992-25.307h-88.387l-4.008 25.307c-3.233 20.408 12.538 38.874 33.201 38.874z" fill="#fb71a0"/><path d="m248.5 467c18.168 0 32.035-16.237 29.193-34.181h30l-59.193-184.319-29.193 184.319c-2.843 17.944 11.025 34.181 29.193 34.181z" fill="#fb8dac"/><path d="m325.291 484.838c19.651-6.385 28.944-28.821 19.564-47.231l16.899-32.1-84.061 27.313 4.008 25.307c3.233 20.407 23.938 33.096 43.59 26.711z" fill="#e85f93"/><path d="m316.02 456.306c17.279-5.614 25.45-25.341 17.202-41.529l28.532-9.271-113.254-157.006 29.193 184.319c2.842 17.945 21.048 29.101 38.327 23.487z" fill="#fb71a0"/><path d="m394.565 449.541c16.716-12.145 18.622-36.354 4.011-50.965l6.153-35.751-71.506 51.952 11.632 22.83c9.38 18.41 32.993 24.079 49.71 11.934z" fill="#fb71a0"/><path d="m376.931 425.27c14.698-10.679 16.374-31.966 3.527-44.812l24.271-17.634-156.229-114.324 84.722 166.277c8.248 16.188 29.011 21.172 43.709 10.493z" fill="#fb8dac"/><path d="m449.541 394.565c12.145-16.716 6.476-40.33-11.934-49.71l-5.196-35.903-51.952 71.506 18.118 18.118c14.609 14.61 38.818 12.705 50.964-4.011z" fill="#e85f93"/><path d="m425.27 376.931c10.679-14.698 5.694-35.461-10.493-43.709l17.634-24.271-183.911-60.451 131.958 131.958c12.847 12.847 34.133 11.171 44.812-3.527z" fill="#fb71a0"/><path d="m484.838 325.291c6.385-19.651-6.303-40.357-26.711-43.589l-16.036-32.54-27.313 84.061 22.83 11.632c18.409 9.38 40.844.087 47.23-19.564z" fill="#fb71a0"/><path d="m456.306 316.02c5.614-17.279-5.542-35.485-23.487-38.327l9.271-28.532-193.59-.661 166.277 84.722c16.187 8.248 35.915.077 41.529-17.202z" fill="#fb8dac"/><path d="m497 248.5c0-20.663-18.466-36.434-38.874-33.202l-25.307-25.992v88.387l25.307 4.008c20.408 3.233 38.874-12.538 38.874-33.201z" fill="#e85f93"/><path d="m467 248.5c0-18.168-16.237-32.035-34.181-29.193v-30l-184.319 59.193 184.319 29.193c17.944 2.843 34.181-11.025 34.181-29.193z" fill="#fb71a0"/><path d="m484.838 171.709c-6.385-19.651-28.821-28.944-47.231-19.564l-32.1-16.899 27.313 84.061 25.307-4.008c20.407-3.233 33.096-23.938 26.711-43.59z" fill="#fb71a0"/><path d="m456.306 180.98c-5.614-17.279-25.341-25.45-41.529-17.202l-9.271-28.532-157.006 113.254 184.319-29.193c17.945-2.842 29.101-21.048 23.487-38.327z" fill="#fb8dac"/><path d="m449.541 102.435c-12.145-16.716-36.354-18.622-50.965-4.011l-35.751-6.153 51.952 71.506 22.83-11.632c18.41-9.38 24.079-32.993 11.934-49.71z" fill="#e85f93"/><path d="m425.27 120.069c-10.679-14.698-31.966-16.374-44.812-3.527l-17.634-24.271-114.324 156.229 166.277-84.722c16.188-8.248 21.172-29.011 10.493-43.709z" fill="#fb71a0"/><path d="m394.565 47.459c-16.716-12.145-40.33-6.476-49.71 11.934l-35.903 5.196 71.506 51.952 18.118-18.118c14.61-14.609 12.705-38.818-4.011-50.964z" fill="#fb71a0"/><path d="m376.931 71.73c-14.698-10.679-35.461-5.694-43.709 10.494l-24.27-17.634-60.452 183.91 131.958-131.958c12.847-12.847 11.171-34.133-3.527-44.812z" fill="#fb8dac"/><path d="m325.291 12.162c-19.651-6.385-40.357 6.303-43.589 26.711l-4.008 25.307 55.529 18.042 11.632-22.83c9.38-18.409.087-40.844-19.564-47.23z" fill="#e85f93"/><path d="m316.02 40.694c-17.279-5.614-35.485 5.542-38.327 23.487l-29.193 184.319 84.722-166.277c8.248-16.187.077-35.915-17.202-41.529z" fill="#fb71a0"/><circle cx="248.5" cy="248.5" fill="#624a69" r="94"/><path d="m312.5 248.5c0-6.005-2.357-11.456-6.19-15.49 1.302-5.411.618-11.31-2.384-16.51s-7.769-8.742-13.106-10.32c-1.578-5.337-5.12-10.104-10.32-13.106s-11.099-3.687-16.51-2.385c-4.035-3.833-9.486-6.19-15.49-6.19-6.005 0-11.455 2.357-15.49 6.19-5.411-1.302-11.31-.618-16.51 2.385-5.2 3.002-8.742 7.769-10.32 13.106-5.337 1.578-10.103 5.12-13.106 10.32s-3.687 11.099-2.384 16.51c-3.833 4.035-6.19 9.486-6.19 15.49s2.357 11.455 6.19 15.49c-1.302 5.411-.618 11.31 2.384 16.51s7.769 8.742 13.106 10.32c1.578 5.337 5.12 10.104 10.32 13.106s11.099 3.687 16.51 2.385c4.035 3.833 9.486 6.19 15.49 6.19 6.005 0 11.455-2.357 15.49-6.19 5.411 1.302 11.31.618 16.51-2.385 5.2-3.002 8.742-7.769 10.32-13.106 5.337-1.578 10.103-5.12 13.106-10.32s3.687-11.099 2.384-16.51c3.833-4.034 6.19-9.485 6.19-15.49z" fill="#faec8e"/><circle cx="248.5" cy="248.5" fill="#a94675" r="30"/></g></svg>