<svg id="Capa_1" enable-background="new 0 0 497 497" height="512" viewBox="0 0 497 497" width="512" xmlns="http://www.w3.org/2000/svg"><g><path d="m248.5 0c-20.663 0-36.434 18.466-33.202 38.874l-25.992 25.307h118.387l-25.992-25.307c3.233-20.408-12.538-38.874-33.201-38.874z" fill="#fbabc0"/><path d="m248.5 30c-18.168 0-32.035 16.237-29.193 34.181h-30l59.193 184.319 59.193-184.319h-30c2.843-17.944-11.025-34.181-29.193-34.181z" fill="#fbbecf"/><path d="m171.709 12.162c-19.651 6.385-28.944 28.821-19.564 47.231l-16.899 32.1 84.061-27.313-4.008-25.307c-3.233-20.407-23.938-33.096-43.59-26.711z" fill="#fb8dac"/><path d="m180.98 40.694c-17.279 5.614-25.45 25.341-17.202 41.529l-28.532 9.271 113.254 157.006-29.193-184.319c-2.842-17.945-21.048-29.101-38.327-23.487z" fill="#fbabc0"/><path d="m102.435 47.459c-16.716 12.145-18.622 36.354-4.011 50.965l-6.153 35.751 71.506-51.952-11.632-22.83c-9.38-18.41-32.993-24.079-49.71-11.934z" fill="#fbabc0"/><path d="m120.069 71.73c-14.698 10.679-16.374 31.966-3.527 44.812l-24.271 17.634 156.229 114.324-84.722-166.277c-8.248-16.188-29.011-21.172-43.709-10.493z" fill="#fbbecf"/><path d="m47.459 102.435c-12.145 16.716-6.476 40.33 11.934 49.71l5.196 35.903 51.952-71.506-18.117-18.118c-14.61-14.61-38.819-12.705-50.965 4.011z" fill="#fb8dac"/><path d="m71.73 120.069c-10.679 14.698-5.694 35.461 10.494 43.709l-17.634 24.27 183.91 60.452-131.958-131.958c-12.847-12.847-34.133-11.171-44.812 3.527z" fill="#fbabc0"/><path d="m12.162 171.709c-6.385 19.651 6.303 40.357 26.711 43.589l16.036 32.54 27.313-84.061-22.83-11.632c-18.409-9.38-40.844-.087-47.23 19.564z" fill="#fbabc0"/><path d="m40.694 180.98c-5.614 17.279 5.542 35.485 23.487 38.327l-9.271 28.532 193.59.661-166.277-84.722c-16.187-8.248-35.915-.077-41.529 17.202z" fill="#fbbecf"/><path d="m0 248.5c0 20.663 18.466 36.434 38.874 33.202l25.307 25.992v-88.387l-25.307-4.008c-20.408-3.233-38.874 12.538-38.874 33.201z" fill="#fb8dac"/><path d="m30 248.5c0 18.168 16.237 32.035 34.181 29.193v30l184.319-59.193-184.319-29.193c-17.944-2.843-34.181 11.025-34.181 29.193z" fill="#fbabc0"/><path d="m12.162 325.291c6.385 19.651 28.821 28.944 47.231 19.564l32.1 16.899-27.313-84.061-25.307 4.008c-20.407 3.233-33.096 23.938-26.711 43.59z" fill="#fbabc0"/><path d="m40.694 316.02c5.614 17.279 25.341 25.45 41.529 17.202l9.271 28.532 157.006-113.254-184.319 29.193c-17.945 2.842-29.101 21.048-23.487 38.327z" fill="#fbbecf"/><path d="m47.459 394.565c12.145 16.716 36.354 18.622 50.965 4.011l35.751 6.153-51.952-71.506-22.83 11.632c-18.41 9.38-24.079 32.993-11.934 49.71z" fill="#fb8dac"/><path d="m71.73 376.931c10.679 14.698 31.966 16.374 44.812 3.527l17.634 24.271 114.324-156.229-166.277 84.722c-16.188 8.248-21.172 29.011-10.493 43.709z" fill="#fbabc0"/><path d="m102.435 449.541c16.716 12.145 40.33 6.476 49.71-11.934l35.903-5.196-71.506-51.952-18.118 18.118c-14.61 14.609-12.705 38.818 4.011 50.964z" fill="#fbabc0"/><path d="m120.069 425.27c14.698 10.679 35.461 5.694 43.709-10.493l24.271 17.634 60.451-183.911-131.958 131.958c-12.847 12.847-11.171 34.133 3.527 44.812z" fill="#fbbecf"/><path d="m171.709 484.838c19.651 6.385 40.357-6.303 43.589-26.711l32.54-16.036-84.061-27.313-11.632 22.83c-9.38 18.409-.087 40.844 19.564 47.23z" fill="#fb8dac"/><path d="m180.98 456.306c17.279 5.614 35.485-5.542 38.327-23.487l28.532 9.271.661-193.59-84.722 166.277c-8.248 16.187-.077 35.915 17.202 41.529z" fill="#fbabc0"/><path d="m248.5 497c20.663 0 36.434-18.466 33.202-38.874l25.992-25.307h-88.387l-4.008 25.307c-3.233 20.408 12.538 38.874 33.201 38.874z" fill="#fbabc0"/><path d="m248.5 467c18.168 0 32.035-16.237 29.193-34.181h30l-59.193-184.319-29.193 184.319c-2.843 17.944 11.025 34.181 29.193 34.181z" fill="#fbbecf"/><path d="m325.291 484.838c19.651-6.385 28.944-28.821 19.564-47.231l16.899-32.1-84.061 27.313 4.008 25.307c3.233 20.407 23.938 33.096 43.59 26.711z" fill="#fb8dac"/><path d="m316.02 456.306c17.279-5.614 25.45-25.341 17.202-41.529l28.532-9.271-113.254-157.006 29.193 184.319c2.842 17.945 21.048 29.101 38.327 23.487z" fill="#fbabc0"/><path d="m394.565 449.541c16.716-12.145 18.622-36.354 4.011-50.965l6.153-35.751-71.506 51.952 11.632 22.83c9.38 18.41 32.993 24.079 49.71 11.934z" fill="#fbabc0"/><path d="m376.931 425.27c14.698-10.679 16.374-31.966 3.527-44.812l24.271-17.634-156.229-114.324 84.722 166.277c8.248 16.188 29.011 21.172 43.709 10.493z" fill="#fbbecf"/><path d="m449.541 394.565c12.145-16.716 6.476-40.33-11.934-49.71l-5.196-35.903-51.952 71.506 18.118 18.118c14.609 14.61 38.818 12.705 50.964-4.011z" fill="#fb8dac"/><path d="m425.27 376.931c10.679-14.698 5.694-35.461-10.493-43.709l17.634-24.271-183.911-60.451 131.958 131.958c12.847 12.847 34.133 11.171 44.812-3.527z" fill="#fbabc0"/><path d="m484.838 325.291c6.385-19.651-6.303-40.357-26.711-43.589l-16.036-32.54-27.313 84.061 22.83 11.632c18.409 9.38 40.844.087 47.23-19.564z" fill="#fbabc0"/><path d="m456.306 316.02c5.614-17.279-5.542-35.485-23.487-38.327l9.271-28.532-193.59-.661 166.277 84.722c16.187 8.248 35.915.077 41.529-17.202z" fill="#fbbecf"/><path d="m497 248.5c0-20.663-18.466-36.434-38.874-33.202l-25.307-25.992v88.387l25.307 4.008c20.408 3.233 38.874-12.538 38.874-33.201z" fill="#fb8dac"/><path d="m467 248.5c0-18.168-16.237-32.035-34.181-29.193v-30l-184.319 59.193 184.319 29.193c17.944 2.843 34.181-11.025 34.181-29.193z" fill="#fbabc0"/><path d="m484.838 171.709c-6.385-19.651-28.821-28.944-47.231-19.564l-32.1-16.899 27.313 84.061 25.307-4.008c20.407-3.233 33.096-23.938 26.711-43.59z" fill="#fbabc0"/><path d="m456.306 180.98c-5.614-17.279-25.341-25.45-41.529-17.202l-9.271-28.532-157.006 113.254 184.319-29.193c17.945-2.842 29.101-21.048 23.487-38.327z" fill="#fbbecf"/><path d="m449.541 102.435c-12.145-16.716-36.354-18.622-50.965-4.011l-35.751-6.153 51.952 71.506 22.83-11.632c18.41-9.38 24.079-32.993 11.934-49.71z" fill="#fb8dac"/><path d="m425.27 120.069c-10.679-14.698-31.966-16.374-44.812-3.527l-17.634-24.271-114.324 156.229 166.277-84.722c16.188-8.248 21.172-29.011 10.493-43.709z" fill="#fbabc0"/><path d="m394.565 47.459c-16.716-12.145-40.33-6.476-49.71 11.934l-35.903 5.196 71.506 51.952 18.118-18.118c14.61-14.609 12.705-38.818-4.011-50.964z" fill="#fbabc0"/><path d="m376.931 71.73c-14.698-10.679-35.461-5.694-43.709 10.494l-24.27-17.634-60.452 183.91 131.958-131.958c12.847-12.847 11.171-34.133-3.527-44.812z" fill="#fbbecf"/><path d="m325.291 12.162c-19.651-6.385-40.357 6.303-43.589 26.711l-4.008 25.307 55.529 18.042 11.632-22.83c9.38-18.409.087-40.844-19.564-47.23z" fill="#fb8dac"/><path d="m316.02 40.694c-17.279-5.614-35.485 5.542-38.327 23.487l-29.193 184.319 84.722-166.277c8.248-16.187.077-35.915-17.202-41.529z" fill="#fbabc0"/><path d="m219.012 62.321c-15.481 2.452-25.105 18.158-20.262 33.065l-14.815 2.347 64.565 150.767 14.815-163.341-14.815 2.347c0-15.674-14.007-27.637-29.488-25.185z" fill="#fbcfdb"/><path d="m162.923 80.545c-13.965 7.116-18.266 25.027-9.053 37.708l-13.365 6.81 107.995 123.437-49.75-153.115c-4.843-14.906-21.862-21.955-35.827-14.84z" fill="#fbe1e9"/><path d="m115.21 115.21c-11.083 11.083-9.638 29.447 3.043 38.66l-10.607 10.607 140.854 84.023-94.63-130.247c-9.213-12.68-27.577-14.126-38.66-3.043z" fill="#fbcfdb"/><path d="m80.545 162.923c-7.116 13.965-.066 30.984 14.84 35.827l-6.81 13.365 159.925 36.385-130.247-94.63c-12.68-9.213-30.592-4.913-37.708 9.053z" fill="#fbe1e9"/><path d="m62.321 219.012c-2.452 15.481 9.511 29.488 25.185 29.488l-2.347 14.815 163.341-14.815-153.115-49.75c-14.906-4.843-30.612 4.781-33.064 20.262z" fill="#fbcfdb"/><path d="m62.321 277.988c2.452 15.481 18.158 25.106 33.065 20.262l2.347 14.815 150.767-64.565h-160.994c-15.674 0-27.637 14.007-25.185 29.488z" fill="#fbe1e9"/><path d="m80.545 334.077c7.116 13.965 25.027 18.266 37.708 9.053l6.81 13.365 123.437-107.995-153.115 49.75c-14.906 4.843-21.955 21.862-14.84 35.827z" fill="#fbcfdb"/><path d="m115.21 381.79c11.083 11.083 29.447 9.638 38.66-3.043l10.607 10.607 84.023-140.854-130.247 94.63c-12.68 9.213-14.126 27.577-3.043 38.66z" fill="#fbe1e9"/><path d="m162.923 416.455c13.965 7.116 30.984.066 35.827-14.84l13.365 6.81 36.385-159.925-94.63 130.247c-9.213 12.68-4.912 30.592 9.053 37.708z" fill="#fbcfdb"/><path d="m219.012 434.679c15.481 2.452 29.488-9.511 29.488-25.185l14.815 2.347-14.815-163.341-49.75 153.115c-4.843 14.906 4.781 30.612 20.262 33.064z" fill="#fbe1e9"/><path d="m277.988 434.679c15.481-2.452 25.106-18.158 20.262-33.065l14.815-2.347-64.565-150.767v160.994c0 15.674 14.007 27.637 29.488 25.185z" fill="#fbcfdb"/><path d="m334.077 416.455c13.965-7.116 18.266-25.027 9.053-37.708l13.365-6.81-107.995-123.437 49.75 153.115c4.843 14.906 21.862 21.955 35.827 14.84z" fill="#fbe1e9"/><path d="m381.79 381.79c11.083-11.083 9.638-29.447-3.043-38.66l10.607-10.607-140.854-84.023 94.63 130.247c9.213 12.68 27.577 14.126 38.66 3.043z" fill="#fbcfdb"/><path d="m416.455 334.077c7.116-13.965.066-30.984-14.84-35.827l6.81-13.365-159.925-36.385 130.247 94.63c12.68 9.213 30.592 4.913 37.708-9.053z" fill="#fbe1e9"/><path d="m434.679 277.988c2.452-15.481-9.511-29.488-25.185-29.488l2.347-14.815-163.341 14.815 153.115 49.75c14.906 4.843 30.612-4.781 33.064-20.262z" fill="#fbcfdb"/><path d="m434.679 219.012c-2.452-15.481-18.158-25.106-33.065-20.262l-2.347-14.815-150.767 64.565h160.994c15.674 0 27.637-14.007 25.185-29.488z" fill="#fbe1e9"/><path d="m416.455 162.923c-7.116-13.965-25.027-18.266-37.708-9.053l-6.81-13.365-123.437 107.995 153.115-49.75c14.906-4.843 21.955-21.862 14.84-35.827z" fill="#fbcfdb"/><path d="m381.79 115.21c-11.083-11.083-29.447-9.638-38.66 3.043l-10.607-10.607-84.023 140.854 130.247-94.63c12.68-9.213 14.126-27.577 3.043-38.66z" fill="#fbe1e9"/><path d="m334.077 80.545c-13.965-7.116-30.984-.066-35.827 14.84l-13.365-6.81-36.385 159.925 94.63-130.247c9.213-12.68 4.913-30.592-9.053-37.708z" fill="#fbcfdb"/><path d="m277.988 62.321c-15.481-2.452-29.488 9.511-29.488 25.185v160.994l49.75-153.115c4.843-14.906-4.781-30.612-20.262-33.064z" fill="#fbe1e9"/><path d="m248.5 120c-10.685 0-18.84 9.549-17.169 20.102h-15l32.169 108.398 17.169-108.398c1.671-10.553-6.484-20.102-17.169-20.102z" fill="#fbbecf"/><path d="m208.791 126.289c-10.162 3.302-14.967 14.903-10.117 24.423l-14.266 4.635 64.092 93.153-17.169-108.398c-1.671-10.553-12.378-17.115-22.54-13.813z" fill="#fbabc0"/><path d="m172.97 144.541c-8.644 6.28-9.629 18.799-2.074 26.354l-12.135 8.817 89.739 68.788-49.825-97.787c-4.851-9.521-17.061-12.452-25.705-6.172z" fill="#fbbecf"/><path d="m144.541 172.97c-6.28 8.644-3.349 20.855 6.171 25.705l-8.817 12.135 106.605 37.69-77.605-77.605c-7.555-7.555-20.073-6.569-26.354 2.075z" fill="#fbabc0"/><path d="m126.289 208.791c-3.302 10.162 3.259 20.869 13.813 22.54l-4.635 14.266 113.033 2.903-97.787-49.825c-9.52-4.851-21.122-.045-24.424 10.116z" fill="#fbbecf"/><path d="m120 248.5c0 10.685 9.549 18.84 20.102 17.169v15l108.398-32.169-108.398-17.169c-10.553-1.671-20.102 6.484-20.102 17.169z" fill="#fbabc0"/><path d="m126.289 288.209c3.302 10.162 14.903 14.967 24.423 10.117l4.635 14.266 93.153-64.092-108.398 17.169c-10.553 1.671-17.114 12.378-13.813 22.54z" fill="#fbbecf"/><path d="m144.541 324.03c6.28 8.644 18.799 9.629 26.354 2.074l8.817 12.135 68.788-89.739-97.787 49.825c-9.52 4.851-12.452 17.061-6.172 25.705z" fill="#fbabc0"/><path d="m172.97 352.459c8.644 6.28 20.855 3.349 25.705-6.171l12.135 8.817 37.69-106.605-77.605 77.605c-7.555 7.555-6.569 20.073 2.075 26.354z" fill="#fbbecf"/><path d="m208.791 370.711c10.162 3.302 20.869-3.259 22.54-13.813l14.266 4.635 2.903-113.033-49.825 97.787c-4.851 9.52-.045 21.122 10.116 24.424z" fill="#fbabc0"/><path d="m248.5 377c10.685 0 18.84-9.549 17.169-20.102h15l-32.169-108.398-17.169 108.398c-1.671 10.553 6.484 20.102 17.169 20.102z" fill="#fbbecf"/><path d="m288.209 370.711c10.162-3.302 14.967-14.903 10.117-24.423l14.266-4.635-64.092-93.153 17.169 108.398c1.671 10.553 12.378 17.115 22.54 13.813z" fill="#fbabc0"/><path d="m324.03 352.459c8.644-6.28 9.629-18.799 2.074-26.354l12.135-8.817-89.739-68.788 49.825 97.787c4.851 9.521 17.061 12.452 25.705 6.172z" fill="#fbbecf"/><path d="m352.459 324.03c6.28-8.644 3.349-20.855-6.171-25.705l8.817-12.135-106.605-37.69 77.605 77.605c7.555 7.555 20.073 6.569 26.354-2.075z" fill="#fbabc0"/><path d="m370.711 288.209c3.302-10.162-3.259-20.869-13.813-22.54l4.635-14.266-113.033-2.903 97.787 49.825c9.521 4.851 21.122.045 24.424-10.116z" fill="#fbbecf"/><path d="m377 248.5c0-10.685-9.549-18.84-20.102-17.169v-15l-108.398 32.169 108.398 17.169c10.553 1.671 20.102-6.484 20.102-17.169z" fill="#fbabc0"/><path d="m370.711 208.791c-3.302-10.162-14.903-14.967-24.423-10.117l-4.635-14.266-93.153 64.092 108.398-17.169c10.553-1.671 17.115-12.378 13.813-22.54z" fill="#fbbecf"/><path d="m352.459 172.97c-6.28-8.644-18.799-9.629-26.354-2.074l-8.817-12.135-68.788 89.739 97.787-49.825c9.521-4.851 12.452-17.061 6.172-25.705z" fill="#fbabc0"/><path d="m324.031 144.541c-8.644-6.28-20.854-3.349-25.705 6.171l-12.135-8.817-37.691 106.605 77.605-77.605c7.555-7.555 6.57-20.073-2.074-26.354z" fill="#fbbecf"/><path d="m288.209 126.289c-10.162-3.302-20.869 3.259-22.54 13.813l-17.169 108.398 49.825-97.787c4.851-9.52.045-21.122-10.116-24.424z" fill="#fbabc0"/><path d="m248.5 207.5v82c22.644 0 41-18.356 41-41s-18.356-41-41-41z" fill="#faec8e"/><path d="m259.5 248.5c0-22.644-4.925-41-11-41-22.644 0-41 18.356-41 41s18.356 41 41 41c6.075 0 11-18.356 11-41z" fill="#fbf6c3"/></g></svg>