<svg id="Capa_1" enable-background="new 0 0 497.003 497.003" height="512" viewBox="0 0 497.003 497.003" width="512" xmlns="http://www.w3.org/2000/svg"><g><path d="m345.659 368.552c-2.396-7.389-5.965-14.407-10.587-20.774l-9.765-49.749-153.066 36.093-9.926 13.655c-9.244 12.733-14.237 28.073-14.237 43.813v.271c0 27.2 14.818 52.235 38.66 65.329l57.713 31.688c2.235 1.227 4.941 1.235 7.182.02l58.654-31.778c24.042-13.034 39.021-38.189 39.021-65.539.001-7.87-1.243-15.63-3.649-23.029z" fill="#e85f93"/><path d="m334.531 352.521c-2.095-6.467-5.203-12.613-9.224-18.187-.05-.07-.1-.14-.15-.21l.15-36.093-126.818-.02-26.248 36.113c-8.191 11.279-12.603 24.854-12.603 38.79v.231c0 24.082 13.114 46.25 34.218 57.84l54.25 29.787 55.102-29.857c21.285-11.53 34.549-33.797 34.549-58.01.002-6.96-1.101-13.837-3.226-20.384z" fill="#fb71a0"/><path d="m298.939 298.03c-.02-.02-50.24-69.129-50.24-69.129l-50.21 69.109c-6.998 9.966-11.089 22.107-11.089 35.201 0 33.858 27.441 61.309 61.308 61.309 33.858 0 61.308-27.451 61.308-61.309.001-13.084-4.099-25.215-11.077-35.181z" fill="#fbcfdb"/><path d="m411.477 179.841c-7.768-.004-15.546 1.221-23.029 3.65l-50.331-6.086-12.973 156.728 9.92 13.66c9.253 12.726 22.299 22.215 37.269 27.079l.257.084c25.869 8.405 54.258 2.048 74.078-16.58l47.971-45.096c1.858-1.746 2.701-4.317 2.239-6.825l-12.098-65.603c-4.966-26.893-24.262-48.912-50.274-57.364-7.484-2.434-15.248-3.649-23.029-3.647z" fill="#fb71a0"/><path d="m392.791 185.471c-6.798-.006-13.603 1.051-20.147 3.152-.082.026-.164.052-.247.078l-34.28-11.296-39.208 120.605 26.235 36.123c8.196 11.276 19.743 19.666 32.997 23.973l.219.071c22.904 7.442 48.038 1.82 65.583-14.67l45.093-42.39-11.368-61.632c-4.388-23.806-21.467-43.302-44.494-50.784-6.617-2.152-13.499-3.229-20.383-3.23z" fill="#fb8dac"/><path d="m329.969 202.482c-.025.013-81.27 26.419-81.27 26.419l50.211 69.108c7.315 9.735 17.599 17.377 30.052 21.424 32.2 10.463 66.788-7.153 77.253-39.362 10.463-32.2-7.162-66.791-39.362-77.253-12.445-4.044-25.25-3.893-36.884-.336z" fill="#fbe1e9"/><path d="m252.341 58.929c-2.405 7.386-3.642 15.162-3.645 23.029l-21.341 45.987 145.048 60.77 16.056-5.213c14.963-4.868 28.018-14.343 37.271-27.077l.159-.219c15.988-22.006 18.715-50.969 7.123-75.576l-28.065-59.559c-1.087-2.307-3.271-3.903-5.799-4.238l-66.131-8.767c-27.112-3.587-54.015 7.959-70.092 30.087-4.626 6.367-8.182 13.376-10.584 20.776z" fill="#e85f93"/><path d="m251.921 78.44c-2.106 6.463-3.204 13.262-3.228 20.135-.001.086-.001.173-.002.259l-21.337 29.112 102.586 74.558 42.462-13.788c13.257-4.31 24.805-12.7 32.996-23.974l.136-.187c14.155-19.483 16.575-45.125 6.314-66.906l-26.381-55.986-62.128-8.233c-23.997-3.183-47.817 7.035-62.048 26.623-4.091 5.629-7.241 11.841-9.37 18.387z" fill="#fb71a0"/><path d="m248.687 143.445c.004.028.012 85.457.012 85.457l81.242-26.397c11.519-3.949 21.965-11.367 29.662-21.96 19.901-27.391 13.836-65.729-13.563-85.636-27.391-19.901-65.735-13.828-85.636 13.563-7.692 10.584-11.505 22.809-11.717 34.973z" fill="#fbcfdb"/><path d="m88.171 172.913c6.282 4.569 13.294 8.149 20.776 10.583l37.142 34.508 102.618-119.17.004-16.881c-.006-15.735-4.983-31.079-14.235-43.814l-.159-.219c-15.989-22.006-42.692-33.549-69.677-30.129l-65.316 8.286c-2.53.321-4.723 1.905-5.823 4.205l-28.773 60.187c-11.79 24.676-9.122 53.831 6.955 75.958 4.625 6.367 10.192 11.915 16.488 16.486z" fill="#fb71a0"/><path d="m106.598 179.342c5.496 4 11.623 7.145 18.152 9.292.082.027.164.055.245.082l21.093 29.288 102.61-74.525.008-44.644c-.003-13.94-4.413-27.515-12.605-38.79l-.136-.187c-14.155-19.483-37.794-29.709-61.68-26.68l-61.398 7.789-27.028 56.544c-10.443 21.839-8.085 47.65 6.146 67.239 4.09 5.628 9.025 10.544 14.593 14.592z" fill="#fb8dac"/><path d="m167.421 202.505c.028.004 81.278 26.396 81.278 26.396v-85.423c-.196-12.176-4.023-24.403-11.72-34.996-19.901-27.391-58.236-33.47-85.636-13.563-27.391 19.901-33.464 58.245-13.563 85.636 7.69 10.585 18.138 17.989 29.641 21.95z" fill="#fbe1e9"/><path d="m145.845 364.271c6.287-4.562 11.859-10.126 16.485-16.489l9.911-13.659-47.241-145.422-16.054-5.22c-14.966-4.857-31.098-4.865-46.068-.001l-.257.084c-25.869 8.405-45.099 30.235-50.185 56.956l-12.303 64.68c-.476 2.505.352 5.08 2.2 6.837l48.348 45.963c19.825 18.838 48.378 25.31 74.39 16.858 7.485-2.432 14.481-6.012 20.774-10.587z" fill="#fb8dac"/><path d="m157.653 348.733c5.503-3.991 10.387-8.846 14.447-14.392.051-.069.103-.139.154-.208l26.236-36.122-31.032-95.505-42.458-13.805c-13.258-4.305-27.532-4.305-40.786.001l-.219.071c-22.904 7.442-39.934 26.764-44.435 50.417l-11.565 60.8 45.423 43.179c17.543 16.68 42.82 22.414 65.847 14.932 6.618-2.15 12.818-5.324 18.388-9.368z" fill="#fbabc0"/><path d="m198.478 298.044c.013-.025 50.22-69.143 50.22-69.143l-81.242-26.397c-11.641-3.576-24.452-3.714-36.905.332-32.2 10.463-49.828 45.043-39.362 77.253 10.463 32.2 45.053 49.825 77.253 39.362 12.444-4.042 22.715-11.691 30.036-21.407z" fill="#fbeff3"/><path d="m328.848 202.847c-14.723-11.455-34.489-15.904-53.622-10.464-.738-19.878-11.078-37.302-26.522-47.764-15.444 10.462-25.783 27.886-26.522 47.764-19.133-5.441-38.9-.991-53.622 10.464 5.178 17.921 18.554 33.139 37.231 39.983-11.087 16.516-12.963 36.689-6.619 54.231 18.644.613 37.25-7.405 49.531-23.053 12.281 15.648 30.888 23.666 49.531 23.053 6.344-17.542 4.468-37.715-6.619-54.231 18.68-6.845 32.055-22.063 37.233-39.983z" fill="#fbf9e9"/><circle cx="248.705" cy="228.887" fill="#faec8e" r="45.117"/><circle cx="248.705" cy="228.887" fill="#fb71a0" r="15.039"/></g></svg>